<svg width="191" height="71" viewBox="0 0 191 71" fill="none" xmlns="http://www.w3.org/2000/svg">
<path d="M10.7636 43.7788C10.7636 45.0595 10.9283 45.9926 11.2576 46.5781C11.587 47.1636 12.1175 47.4563 12.8494 47.4563C13.2885 47.4563 13.7093 47.4197 14.1118 47.3465C14.5509 47.2733 15.0815 47.1087 15.7036 46.8525L16.472 52.4511C15.8865 52.7439 14.99 53.0366 13.7825 53.3293C12.5749 53.6221 11.3308 53.7684 10.0501 53.7684C7.96434 53.7684 6.37258 53.2927 5.27482 52.3413C4.17706 51.3534 3.62817 49.7433 3.62817 47.5112V14.5783H10.7636V43.7788ZM20.2014 25.5559H27.3368V53H20.2014V25.5559ZM19.1585 17.8167C19.1585 16.7555 19.5427 15.859 20.3112 15.1272C21.1162 14.3588 22.2139 13.9745 23.6044 13.9745C24.9949 13.9745 26.111 14.3588 26.9526 15.1272C27.8308 15.859 28.2699 16.7555 28.2699 17.8167C28.2699 18.8779 27.8308 19.7744 26.9526 20.5062C26.111 21.2015 24.9949 21.5491 23.6044 21.5491C22.2139 21.5491 21.1162 21.2015 20.3112 20.5062C19.5427 19.7744 19.1585 18.8779 19.1585 17.8167ZM45.645 45.4254C45.645 44.6936 45.334 44.1081 44.7119 43.669C44.0899 43.2299 43.3214 42.8274 42.4066 42.4615C41.4918 42.0956 40.4855 41.7296 39.3878 41.3637C38.29 40.9612 37.2837 40.4306 36.3689 39.772C35.4541 39.0767 34.6857 38.2168 34.0636 37.1922C33.4416 36.131 33.1305 34.7771 33.1305 33.1305C33.1305 30.4227 33.9356 28.3552 35.5456 26.9281C37.1557 25.5011 39.4793 24.7875 42.5164 24.7875C44.6022 24.7875 46.4866 25.0071 48.1699 25.4462C49.8531 25.8853 51.1704 26.3793 52.1218 26.9281L50.5301 32.0876C49.6885 31.7583 48.6273 31.4107 47.3466 31.0448C46.0658 30.6788 44.7668 30.4959 43.4495 30.4959C41.3272 30.4959 40.266 31.3192 40.266 32.9658C40.266 33.6245 40.577 34.1551 41.1991 34.5576C41.8212 34.9601 42.5896 35.3443 43.5044 35.7102C44.4192 36.0396 45.4255 36.4055 46.5232 36.808C47.621 37.2105 48.6273 37.7411 49.5421 38.3998C50.4569 39.0218 51.2253 39.8451 51.8474 40.8697C52.4695 41.8943 52.7805 43.2116 52.7805 44.8217C52.7805 47.6027 51.884 49.7982 50.091 51.4082C48.3346 52.9817 45.6816 53.7684 42.1322 53.7684C40.1928 53.7684 38.3632 53.5123 36.6434 53C34.9601 52.5243 33.5879 51.9571 32.5268 51.2985L34.5027 45.9743C35.3444 46.45 36.4604 46.9257 37.8509 47.4014C39.2414 47.8405 40.6685 48.0601 42.1322 48.0601C43.1934 48.0601 44.035 47.8588 44.657 47.4563C45.3157 47.0538 45.645 46.3768 45.645 45.4254ZM54.5849 25.5559H58.3722V20.3965L65.5077 18.3656V25.5559H72.204V31.5936H65.5077V42.1322C65.5077 44.0349 65.6906 45.4071 66.0566 46.2488C66.4591 47.0538 67.1909 47.4563 68.2521 47.4563C68.9839 47.4563 69.606 47.3831 70.1183 47.2367C70.6672 47.0904 71.2709 46.8708 71.9296 46.5781L73.192 52.0669C72.204 52.5426 71.0514 52.9451 69.7341 53.2744C68.4167 53.6038 67.0811 53.7684 65.7272 53.7684C63.2024 53.7684 61.3362 53.1281 60.1286 51.8473C58.9577 50.53 58.3722 48.3894 58.3722 45.4254V31.5936H54.5849V25.5559ZM76.7396 14.5783H99.5182V21.2747H84.2593V30.2214H98.146V36.9178H84.2593V46.3036H99.7926V53H76.7396V14.5783ZM105.087 27.1477C106.551 26.489 108.289 25.9767 110.302 25.6108C112.314 25.2083 114.418 25.0071 116.614 25.0071C118.516 25.0071 120.108 25.2449 121.389 25.7206C122.67 26.1597 123.676 26.8001 124.408 27.6417C125.176 28.4833 125.707 29.4896 126 30.6605C126.329 31.8315 126.494 33.1488 126.494 34.6125C126.494 36.2225 126.439 37.8509 126.329 39.4975C126.219 41.1076 126.146 42.6993 126.109 44.2728C126.109 45.8462 126.164 47.3831 126.274 48.8834C126.384 50.3471 126.658 51.7376 127.097 53.0549H121.279L120.126 49.2676H119.852C119.12 50.402 118.096 51.3899 116.778 52.2316C115.498 53.0366 113.833 53.4391 111.784 53.4391C110.503 53.4391 109.35 53.2561 108.326 52.8902C107.301 52.4877 106.423 51.9388 105.691 51.2436C104.959 50.5117 104.392 49.6701 103.989 48.7187C103.587 47.7307 103.386 46.633 103.386 45.4254C103.386 43.7422 103.752 42.3334 104.483 41.1991C105.252 40.0281 106.331 39.095 107.722 38.3998C109.149 37.6679 110.832 37.1739 112.771 36.9178C114.747 36.625 116.943 36.5336 119.358 36.6433C119.614 34.5942 119.468 33.1305 118.919 32.2523C118.37 31.3375 117.144 30.8801 115.241 30.8801C113.814 30.8801 112.296 31.0265 110.686 31.3192C109.112 31.6119 107.813 31.9961 106.789 32.4718L105.087 27.1477ZM114.144 47.5661C115.571 47.5661 116.705 47.255 117.547 46.633C118.388 45.9743 119.01 45.2791 119.413 44.5472V40.9795C118.279 40.8697 117.181 40.8514 116.12 40.9246C115.095 40.9978 114.18 41.1625 113.375 41.4186C112.57 41.6748 111.93 42.0407 111.454 42.5164C110.978 42.9921 110.741 43.5958 110.741 44.3277C110.741 45.3523 111.033 46.1573 111.619 46.7428C112.241 47.2916 113.083 47.5661 114.144 47.5661ZM143.843 45.4254C143.843 44.6936 143.532 44.1081 142.91 43.669C142.288 43.2299 141.52 42.8274 140.605 42.4615C139.69 42.0956 138.684 41.7296 137.586 41.3637C136.488 40.9612 135.482 40.4306 134.567 39.772C133.652 39.0767 132.884 38.2168 132.262 37.1922C131.64 36.131 131.329 34.7771 131.329 33.1305C131.329 30.4227 132.134 28.3552 133.744 26.9281C135.354 25.5011 137.678 24.7875 140.715 24.7875C142.8 24.7875 144.685 25.0071 146.368 25.4462C148.051 25.8853 149.369 26.3793 150.32 26.9281L148.728 32.0876C147.887 31.7583 146.826 31.4107 145.545 31.0448C144.264 30.6788 142.965 30.4959 141.648 30.4959C139.525 30.4959 138.464 31.3192 138.464 32.9658C138.464 33.6245 138.775 34.1551 139.397 34.5576C140.019 34.9601 140.788 35.3443 141.703 35.7102C142.617 36.0396 143.624 36.4055 144.722 36.808C145.819 37.2105 146.826 37.7411 147.74 38.3998C148.655 39.0218 149.424 39.8451 150.046 40.8697C150.668 41.8943 150.979 43.2116 150.979 44.8217C150.979 47.6027 150.082 49.7982 148.289 51.4082C146.533 52.9817 143.88 53.7684 140.33 53.7684C138.391 53.7684 136.561 53.5123 134.842 53C133.158 52.5243 131.786 51.9571 130.725 51.2985L132.701 45.9743C133.543 46.45 134.659 46.9257 136.049 47.4014C137.44 47.8405 138.867 48.0601 140.33 48.0601C141.392 48.0601 142.233 47.8588 142.855 47.4563C143.514 47.0538 143.843 46.3768 143.843 45.4254ZM165.627 40.9795L166.615 45.2608H166.944L167.658 40.9246L171.829 25.5559H179.184L170.841 50.3105C170.146 52.3596 169.469 54.2258 168.811 55.9091C168.188 57.6289 167.493 59.1109 166.725 60.355C165.956 61.5991 165.096 62.5505 164.145 63.2092C163.23 63.9044 162.132 64.2521 160.852 64.2521C158.949 64.2521 157.43 63.941 156.296 63.319L157.613 57.6106C158.162 57.8302 158.711 57.9399 159.26 57.9399C160.102 57.9399 160.907 57.574 161.675 56.8422C162.48 56.1469 163.084 54.8662 163.486 53L152.015 25.5559H160.577L165.627 40.9795Z" fill="#FFCC30"/>
<circle cx="6.2596" cy="6.2596" r="6.2596" transform="matrix(1 0 0 -1 177.297 52.4402)" fill="#FFCC30"/>
</svg>
